<?xml version="1.0" standalone="no"?>
<!DOCTYPE svg PUBLIC "-//W3C//DTD SVG 20010904//EN"
 "http://www.w3.org/TR/2001/REC-SVG-20010904/DTD/svg10.dtd">
<svg version="1.0" xmlns="http://www.w3.org/2000/svg"
 width="500.000000pt" height="500.000000pt" viewBox="0 0 500.000000 500.000000"
 preserveAspectRatio="xMidYMid meet">

<g transform="translate(0.000000,500.000000) scale(0.100000,-0.100000)"
fill="#FF4500" stroke="none">
<path d="M2487 4488 c-16 -12 -17 -37 -15 -272 3 -234 5 -260 21 -270 12 -8
22 -8 35 0 15 10 17 36 20 267 2 222 0 257 -14 271 -19 19 -25 20 -47 4z"/>
<path d="M1727 4183 c-14 -13 -6 -45 20 -79 43 -57 84 -67 98 -23 9 28 -58
109 -89 109 -12 0 -26 -3 -29 -7z"/>
<path d="M3251 4150 c-35 -43 -38 -76 -9 -94 33 -20 117 81 97 117 -17 30 -53
20 -88 -23z"/>
<path d="M1917 3963 c-19 -18 0 -56 64 -130 69 -81 93 -95 117 -71 22 22 12
45 -59 126 -67 78 -100 98 -122 75z"/>
<path d="M3044 3913 c-87 -100 -98 -118 -85 -142 20 -36 46 -24 113 52 79 88
89 106 77 129 -18 34 -52 21 -105 -39z"/>
<path d="M2176 3401 c-43 -60 -79 -112 -79 -116 0 -4 87 -113 192 -241 207
-252 217 -260 264 -211 43 43 362 438 364 450 2 7 -33 60 -77 120 l-80 107
-252 0 -253 0 -79 -109z m593 -38 c28 -38 50 -71 51 -75 0 -8 -299 -372 -309
-376 -4 -1 -78 82 -163 186 l-155 189 51 71 51 72 212 0 213 0 49 -67z"/>
<path d="M1322 3428 c-19 -19 -14 -48 11 -58 39 -17 495 -77 511 -68 18 10 21
53 5 63 -11 7 -457 74 -494 75 -12 0 -26 -5 -33 -12z"/>
<path d="M3452 3405 c-122 -18 -229 -36 -237 -39 -20 -7 -19 -53 1 -64 16 -9
472 51 512 68 42 18 21 71 -27 69 -15 -1 -126 -16 -249 -34z"/>
<path d="M1565 2861 c-282 -26 -539 -153 -744 -366 -215 -224 -321 -488 -321
-798 0 -338 103 -596 333 -834 134 -138 290 -238 469 -299 189 -64 440 -76
628 -31 188 45 310 101 445 202 387 290 563 778 446 1236 -42 166 -129 341
-223 453 l-42 49 52 48 c110 101 281 189 461 236 84 22 117 26 256 26 139 0
172 -4 256 -26 211 -55 361 -140 509 -286 198 -195 303 -418 330 -699 30 -318
-84 -627 -320 -863 -94 -94 -167 -147 -286 -208 -343 -173 -748 -153 -1078 53
-63 39 -79 45 -96 36 -50 -27 -7 -76 127 -147 92 -49 229 -97 345 -120 132
-26 337 -21 473 11 359 87 644 315 802 642 304 630 -12 1391 -677 1625 -124
44 -229 61 -385 61 -169 0 -273 -18 -424 -75 -293 -110 -542 -351 -666 -646
-120 -283 -121 -598 -6 -898 36 -93 114 -226 172 -296 48 -56 50 -52 -61 -136
-204 -153 -406 -223 -655 -225 -147 -1 -240 13 -363 55 -377 128 -670 472
-732 864 -40 250 6 511 127 720 308 533 978 720 1498 419 132 -77 134 -77 151
-63 8 7 14 23 12 37 -2 20 -24 37 -111 87 -212 123 -460 178 -702 156z m995
-518 c28 -38 73 -113 100 -168 144 -293 155 -618 31 -916 -28 -68 -120 -218
-170 -279 l-21 -25 -34 40 c-52 60 -132 199 -167 289 -116 300 -99 623 47 906
47 91 137 220 154 220 6 0 33 -30 60 -67z"/>
</g>
</svg>
